<svg xmlns="http://www.w3.org/2000/svg" width="80" height="80" viewBox="0 0 80 80">
  <g id="Hand" transform="translate(-4176.779 -2913.974)">
    <path id="Path_56" data-name="Path 56" d="M0,0H80V80H0Z" transform="translate(4176.779 2913.974)" fill="none"/>
    <path id="Path_55" data-name="Path 55" d="M505.606-196.615a2.9,2.9,0,0,0-2.9-2.9,2.9,2.9,0,0,0-2.9,2.9v10.8h-2.138v-16.243a2.9,2.9,0,0,0-2.9-2.9,2.9,2.9,0,0,0-2.9,2.9v16.243h-2.138V-206.1a2.9,2.9,0,0,0-2.9-2.9h0a2.9,2.9,0,0,0-2.9,2.9v20.288H481.8v-16.243a2.9,2.9,0,0,0-2.9-2.9,2.9,2.9,0,0,0-2.9,2.9v21.125h-1.78l-2.458-6.629a4.871,4.871,0,0,0-5.6-2.656,1.259,1.259,0,0,0-1.055,1.634l5.632,15.191a1.311,1.311,0,0,0,.14.27,13.765,13.765,0,0,0,7.575,8.166l-.011,12.4h20.135l-.008-13.037a13.722,13.722,0,0,0,7.025-11.98v-.305s0-.009,0-.013v-18.72Z" transform="translate(3728.957 3135.087)" fill="#fff"/>
  </g>
</svg>
