<svg id="Hand_wave" xmlns="http://www.w3.org/2000/svg" width="80" height="80" viewBox="0 0 80 80">
  <path id="Path_53" data-name="Path 53" d="M80,0H0V80H80Z" fill="none"/>
  <path id="Path_61" data-name="Path 61" d="M465.043-196.615a2.9,2.9,0,0,1,2.9-2.9,2.9,2.9,0,0,1,2.9,2.9v10.8h2.138v-16.243a2.9,2.9,0,0,1,2.9-2.9,2.9,2.9,0,0,1,2.9,2.9v16.243h2.138V-206.1a2.9,2.9,0,0,1,2.9-2.9h0a2.9,2.9,0,0,1,2.9,2.9v20.288h2.138v-16.243a2.9,2.9,0,0,1,2.9-2.9,2.9,2.9,0,0,1,2.9,2.9v21.125h1.78l2.458-6.629a4.871,4.871,0,0,1,5.6-2.656,1.259,1.259,0,0,1,1.055,1.634L499.9-173.393a1.311,1.311,0,0,1-.14.27,13.765,13.765,0,0,1-7.575,8.166l.011,12.4H472.06l.008-13.037a13.722,13.722,0,0,1-7.025-11.98v-.305s0-.009,0-.013v-18.72Z" transform="translate(-442.826 219.113)" fill="#fff"/>
</svg>
