<svg id="Call" xmlns="http://www.w3.org/2000/svg" width="80" height="80" viewBox="0 0 80 80">
  <path id="Path_43" data-name="Path 43" d="M0,0H80V80H0Z" fill="none"/>
  <path id="Path_44" data-name="Path 44" d="M52.111,38.743a33.038,33.038,0,0,1-10.192-1.617A2.822,2.822,0,0,0,39,37.819L34.47,43.507A43.837,43.837,0,0,1,14.578,23.788l5.63-4.793A2.947,2.947,0,0,0,20.9,16.05,32.2,32.2,0,0,1,19.284,5.858,2.884,2.884,0,0,0,16.425,3H6.436C4.877,3,3,3.693,3,5.858,3,32.68,25.318,54.969,52.111,54.969c2.05,0,2.858-1.819,2.858-3.407V41.6A2.884,2.884,0,0,0,52.111,38.743Z" transform="translate(10.515 11.515)" fill="#fff"/>
</svg>
