<svg xmlns="http://www.w3.org/2000/svg" width="80" height="80" viewBox="0 0 80 80">
  <g id="Leave" transform="translate(5.346 5.345)">
    <path id="Path_47" data-name="Path 47" d="M0,0H80V80H0Z" transform="translate(-5.345 -5.345)" fill="none"/>
    <path id="Path_48" data-name="Path 48" d="M35,12.826a43.537,43.537,0,0,0-13.417,2.1v9.031a2.935,2.935,0,0,1-1.633,2.622,33.574,33.574,0,0,0-7.758,5.389,2.866,2.866,0,0,1-2.042.816,2.909,2.909,0,0,1-2.071-.845L.846,24.712A2.785,2.785,0,0,1,0,22.673,2.9,2.9,0,0,1,.846,20.6a49.674,49.674,0,0,1,68.308,0,2.952,2.952,0,0,1,0,4.137l-7.233,7.225a2.909,2.909,0,0,1-2.071.845A3,3,0,0,1,57.808,32a32.873,32.873,0,0,0-7.787-5.389,2.9,2.9,0,0,1-1.633-2.622V14.953A42.383,42.383,0,0,0,35,12.826Z" transform="translate(0 14.432)" fill="#fff"/>
  </g>
</svg>
