<svg id="Mic" xmlns="http://www.w3.org/2000/svg" width="80" height="80" viewBox="0 0 80 80">
  <path id="Path_51" data-name="Path 51" d="M25.732,37.2a8.805,8.805,0,0,0,8.855-8.8l.03-17.6a8.885,8.885,0,0,0-17.77,0V28.4A8.831,8.831,0,0,0,25.732,37.2Zm15.7-8.8c0,8.8-7.523,14.96-15.7,14.96s-15.7-6.16-15.7-14.96H5c0,10,8.056,18.274,17.77,19.711v9.621h5.923V48.111c9.714-1.408,17.77-9.68,17.77-19.711Z" transform="translate(14.268 9.707)" fill="#fff"/>
  <path id="Path_52" data-name="Path 52" d="M0,0H80V80H0Z" fill="none"/>
</svg>
