<?xml version="1.0" encoding="utf-8"?>
<!-- Generator: Adobe Illustrator 23.0.1, SVG Export Plug-In . SVG Version: 6.00 Build 0)  -->
<svg version="1.1" id="Layer_1" xmlns="http://www.w3.org/2000/svg" xmlns:xlink="http://www.w3.org/1999/xlink" x="0px" y="0px"
	 viewBox="0 0 126 126" style="enable-background:new 0 0 126 126;" xml:space="preserve">
<style type="text/css">
	.st0{fill:#EA1616;}
	.st1{enable-background:new    ;}
	.st2{fill:#FFFFFF;}
	.st3{fill:none;}
	.st4{fill:none;stroke:#EA1616;stroke-width:5;}
</style>
<g id="P" transform="translate(-187.653 -13.517)">
	<circle id="Ellipse_22" class="st0" cx="250.5" cy="76.3" r="53"/>
	<g class="st1">
		<path class="st2" d="M235,97.7V53.3h14.4c5.4,0,9,0.2,10.7,0.7c2.5,0.7,4.7,2.1,6.4,4.3c1.7,2.2,2.6,5.1,2.6,8.6
			c0,2.7-0.5,5-1.5,6.9c-1,1.9-2.2,3.3-3.8,4.4c-1.5,1.1-3.1,1.8-4.6,2.1c-2.1,0.4-5.2,0.6-9.3,0.6H244v16.7H235z M244,60.8v12.6
			h4.9c3.5,0,5.9-0.2,7.1-0.7c1.2-0.5,2.1-1.2,2.8-2.2c0.7-1,1-2.1,1-3.5c0-1.6-0.5-2.9-1.4-4c-0.9-1-2.1-1.7-3.6-2
			c-1.1-0.2-3.2-0.3-6.4-0.3H244z"/>
	</g>
	<g id="Ellipse_23" transform="translate(187.653 13.517)">
		<ellipse class="st3" cx="63" cy="63" rx="63" ry="63"/>
		<ellipse class="st4" cx="63" cy="63" rx="60.5" ry="60.5"/>
	</g>
</g>
</svg>
